<?xml version="1.0" encoding="UTF-8"?>
<svg id="a" data-name="Layer 1" xmlns="http://www.w3.org/2000/svg" viewBox="0 0 360.11 694.15">
  <defs>
    <style>
      .b {
        fill: #00b496;
      }
    </style>
  </defs>
  <path class="b" d="M143.86,442.97c0-15.84-.06-31.69,.06-47.53,.02-2.73-.84-89.3-2.76-91.2-10.04-9.89-19.93-19.94-29.97-29.83-2.3-2.27-3.36-4.69-3.3-7.94,.16-8.23-.03-16.47,.1-24.7,.04-2.62-.57-102.52-3.09-103.91-7.22-3.99-10.62-12.79-8.38-20.59,2.42-8.4,9.51-13.48,18.52-13.28,8.05,.18,15.02,5.84,17,13.82,1.87,7.51-1.29,15.76-8.11,19.72-2.83,1.65-3.64,101.75-3.54,104.82,.2,6.48,.17,12.98,0,19.46-.07,2.72,.76,4.67,2.7,6.58,9.61,9.44,18.97,19.15,28.69,28.47,3.46,3.31,4.71,91.44,4.69,96.17-.17,31.44-.09,128.27-.09,159.71,0,5,.15,5.07,5.07,4.33,3.08-.46,6.19-.72,9.28-1.07,.98-.11,2.29,.13,2.68-.92,.89-2.39,.16-70.34,.43-72.8,.3-2.79-.67-4.44-3.24-5.95-11.77-6.89-11.78-24.12-.03-31.02,2.55-1.5,3.3-3.14,3.29-5.93-.08-39.3-.09-347.37,.02-386.67,0-3.31-.85-5.05-4.02-6.48-9.87-4.45-14.9-13.83-13.94-25.01,.78-9.08,8.15-17.6,17.57-20.31,11.91-3.42,24.66,3.02,29.24,14.77,4.51,11.57-.6,24.99-12.08,30.33-3.61,1.68-4.42,3.72-4.41,7.37,.12,38.92,.1,346.62,.02,385.55,0,3.05,.72,4.88,3.55,6.55,11.21,6.65,11.47,23.6,.4,30.39-3.19,1.95-4.35,4.02-3.92,7.47,.17,1.35,.11,68.14,.02,69.51-.16,2.23,.82,2.98,3.02,3.22,5.57,.6,11.17,1.22,16.64,2.37,3.34,.71,3.83-.4,3.82-3.3-.07-24.95-.04-115.3-.04-140.25,0-9.86,.11-104.35-.06-114.21-.06-3.51,.99-6.16,3.51-8.61,8.05-7.83,15.88-15.88,23.89-23.74,1.82-1.79,2.71-3.62,2.65-6.22-.16-6.86-.13-13.72-.01-20.58,.04-2.48-.59-102.28-2.97-103.6-7.27-4.03-10.71-12.72-8.53-20.53,2.31-8.27,9.34-13.49,18.06-13.42,8.35,.07,15.37,5.58,17.47,13.71,2,7.74-1.36,16.03-8.58,20.2-2.31,1.33-3.05,101.07-3.01,103.59,.12,8.11-.13,16.22,.12,24.32,.12,3.84-1.2,6.59-3.9,9.21-7.88,7.65-15.52,15.53-23.36,23.21-1.92,1.88-2.82,3.78-2.81,6.53,.08,34.56,.09,219.15-.01,253.7,0,3.12,.88,4.75,3.92,5.72,3.55,1.13,7,2.67,10.32,4.36,2.7,1.37,3.33,.79,3.31-2.12-.09-16.47,.07-98.33-.13-114.8-.05-4.16,1.32-7.05,4.43-9.67,11.37-9.54,22.54-19.32,33.92-28.85,2.62-2.2,3.82-4.47,3.73-7.96-.24-8.35-.14-101.36-.04-109.71,.03-2.48-.58-4.03-2.97-5.36-7.27-4.02-10.72-12.71-8.54-20.53,2.24-8.02,9.09-13.33,17.3-13.42,8.75-.09,15.75,5.07,18.11,13.34,2.19,7.68-1.04,16.19-8.15,20.36-2.5,1.47-3.4,3.06-3.36,5.91,.16,9.98-.09,104.6,.14,114.58,.09,4.01-1.27,6.82-4.28,9.36-11.36,9.55-22.53,19.33-33.91,28.86-2.71,2.27-3.93,4.61-3.89,8.26,.2,16.96,.15,99.33,.03,116.29-.02,2.93,.8,4.88,3.3,6.51,6.07,3.96,11.61,8.65,16.74,13.75,1.97,1.96,3.25,2.35,5.42,.13,10.48-10.69,21.09-21.25,31.74-31.78,1.65-1.64,2.27-3.36,2.25-5.63-.08-10.85-.1-87.1,0-97.95,.02-2.44-.67-3.74-3.04-4.79-10.6-4.71-15.82-13.72-14.9-25.15,.77-9.58,7.79-17.74,17.99-20.7,1.95-.57,3.24-1.62,4.33-3.26,5.92-8.95,19.5-155.67,19.58-175,.01-2.44-.82-3.77-2.96-4.98-7.26-4.09-10.73-12.71-8.56-20.53,2.22-8.02,9.09-13.35,17.29-13.44,8.76-.1,15.75,5.04,18.12,13.32,2.2,7.68-1,16.24-8.13,20.35-2.76,1.59-3.36,3.43-3.35,6.3,.09,19.96-12.7,168.13-17.97,175.86-1.33,1.95-1.27,2.97,.83,4.43,16.72,11.62,14.64,34.26-3.93,42.83-2.19,1.01-2.9,2.23-2.88,4.53,.09,11.85-.13,89.1,.13,100.95,.1,4.38-1.35,7.49-4.43,10.5-11.34,11.06-22.4,22.41-33.71,33.51-2.17,2.13-2.14,3.5-.37,5.89,17.06,22.88,26.17,48.54,26.43,77.19,.06,6.36-1.85,8.24-8.23,8.25-16.59,.01-33.18,.01-49.78,0-5.92,0-7.14-.95-8.5-6.61-.72-2.99-2.42-5.1-5.58-5.1-3.16,0-4.87,2.09-5.59,5.09-1.37,5.67-2.59,6.62-8.5,6.62-56.51,0-113.02,0-169.54,0-6.4,0-8.3-1.88-8.25-8.23,.24-28.52,9.27-54.08,26.18-76.9,1.91-2.58,2.1-4.07-.36-6.46-11.43-11.15-22.57-22.6-33.99-33.76-2.84-2.77-3.96-5.68-3.9-9.59,.18-11.85,0-89.1,.11-100.95,.03-2.59-.72-3.98-3.24-5.03-9.25-3.87-14.4-11.09-14.99-21.02-.55-9.15,3.35-16.52,11.1-21.5,2.46-1.58,2.49-2.72,.96-4.96-5.3-7.71-17.87-155.45-17.78-175.53,.01-2.86-.57-4.71-3.34-6.29-7.14-4.09-10.33-12.66-8.14-20.34,2.32-8.15,9.24-13.34,17.74-13.33,8.46,.01,15.4,5.29,17.67,13.44,2.15,7.69-1.11,16.17-8.26,20.31-2.57,1.49-3.28,3.18-3.26,5.96,.1,18.96,13.62,165.19,19.38,173.95,1.23,1.87,2.69,3.01,4.92,3.63,9.77,2.74,16.83,11.12,17.61,20.6,.91,11.11-4.25,20.41-14.23,24.83-2.9,1.28-3.77,2.86-3.73,5.89,.17,10.6,.11,86.6,.03,97.21-.02,2.28,.58,4,2.24,5.64,10.64,10.53,21.24,21.1,31.75,31.76,1.89,1.91,3.08,2.17,5.14,.14,7.13-7.02,14.92-13.26,23.56-18.35,1.94-1.14,2.75-2.5,2.74-4.79-.08-16.84-.09-99.08,0-115.92,.01-2.38-.97-3.94-2.54-5.51-12.03-11.96-23.97-24.02-36.05-35.93-2.4-2.37-3.51-4.87-3.43-8.27,.18-7.86-.1-100.36,.13-108.22,.09-3.18-.84-4.82-3.85-6.19-12.99-5.89-17.94-20.75-11.42-33.41,6.27-12.17,21.76-16.68,33.78-9.52,8.42,5.02,12.52,12.71,11.83,22.59-.65,9.4-5.45,16.27-13.95,20.13-3.18,1.45-4.16,3.12-4.03,6.44,.25,6.48,.16,97.61,.03,104.1-.05,2.44,.72,4.21,2.45,5.93,11.88,11.76,23.6,23.68,35.54,35.38,2.92,2.85,4.09,5.84,4.04,9.91-.19,15.22-.08,95.83-.07,111.05,0,4.08,.01,4.05,3.91,2.54,3.02-1.17,6-2.59,9.14-3.3,3.71-.83,4.5-2.84,4.46-6.36-.17-15.84-.08-97.08-.08-112.92Zm42.44,149.49c0,6.11,0,12.22,0,18.33,0,4.98,.01,4.88,4.83,5.11,4.85,.24,9.69,.62,14.52,1.09,11.05,1.09,21.94,3.15,32.7,5.87,1.83,.46,3.12,.45,3.69-1.75,2.32-8.95,5.62-17.56,9.45-25.96,.7-1.53,.33-2.49-1.01-3.46-18.08-13.15-38.27-20.59-60.52-22.61-2.75-.25-3.78,.73-3.72,3.55,.15,6.6,.05,13.21,.05,19.82Zm-12.5-.02c0-4.49,0-8.98,0-13.46,0-10.13-.03-10.38-9.98-9.1-19.66,2.53-37.49,9.83-53.62,21.36-1.86,1.33-2.28,2.45-1.27,4.61,1.9,4.06,3.77,8.19,5.02,12.47,1.37,4.69,3.14,8.56,8.54,9.5,.91,.16,1.8,.89,2.53,1.54,1.97,1.77,4.1,1.9,6.6,1.35,12.68-2.77,25.53-4.4,38.5-4.78,3.07-.09,3.8-1.24,3.73-4.04-.15-6.48-.05-12.96-.05-19.45Zm12.51,62.8c0,7.61,.06,15.21-.04,22.82-.03,2.44,.56,3.65,3.32,3.62,10.1-.12,20.2-.08,30.3-.02,1.83,0,3.04-.55,3.86-2.26,1.74-3.61,4.52-6.25,8.15-7.93,1.82-.85,2.5-2.15,2.57-4.12,.34-9.36,1.68-18.6,3.43-27.78,.45-2.36-.23-3.41-2.53-4-14.77-3.81-29.71-6.29-44.99-6.75-3.03-.09-4.23,.77-4.15,3.97,.19,7.48,.06,14.96,.06,22.44Zm-12.51,.15c0-7.6-.08-15.2,.04-22.8,.04-2.66-.71-3.83-3.59-3.77-11.74,.24-23.3,1.92-34.82,4.09-1.9,.36-2.95,1.17-3.18,3.39-.47,4.62-2.52,8.62-6.22,11.53-1.74,1.36-2.09,2.93-1.81,4.91,1.2,8.51,1.99,17.06,2.1,25.66,.03,2.4,.89,3.29,3.31,3.27,13.58-.07,27.16-.08,40.75,0,2.61,.02,3.5-.9,3.46-3.48-.12-7.6-.04-15.2-.04-22.8Zm-86.56,26.24c7.22,0,14.44-.18,21.65,.08,3.73,.14,4.63-1.25,4.52-4.75-.22-7.35-1-14.63-1.71-21.93-.2-2.05-1.26-3.06-3.12-3.66-2.88-.92-5.56-2.32-7.54-4.64-1.52-1.77-2.9-1.73-4.87-.75-6.26,3.12-12.28,6.63-17.68,11.08-6.99,5.76-13,12.32-16.11,21.09-.89,2.5-.57,3.6,2.45,3.54,7.46-.16,14.93-.05,22.4-.05Zm190.33,0c5.97,0,11.95-.11,17.92,.05,2.87,.07,3.18-1.08,2.3-3.36-2.15-5.52-5.21-10.45-9.31-14.74-9.58-10.02-21.47-16.39-34.03-21.78-3.12-1.34-4.05-.48-4.5,2.59-1.18,8-2.1,16.02-2.88,24.06-.17,1.78,.43,2.77,1.92,3.59,3.12,1.72,5.65,4.11,7.15,7.39,.89,1.95,2.38,2.23,4.26,2.21,5.72-.06,11.45-.02,17.18-.02Zm15.05-32.96c-.88-2.29-1.71-4.61-2.66-6.87-5.9-14.04-14.09-26.57-24.82-37.41-1.05-1.06-2.34-3.45-3.7-.19-2.87,6.9-5.39,13.91-7.23,21.17-.38,1.49-.08,2.35,1.39,2.88,13.35,4.79,25.46,11.77,37.01,20.43Zm-224.75,.15c8.29-6.39,16.98-11.89,26.41-16.19,1.58-.72,1.93-2.19,2.35-3.61,1.02-3.42,2.74-6.44,5.49-8.72,1.35-1.12,1.85-2.21,1.23-3.85-1.49-3.96-2.97-7.92-4.42-11.89-.91-2.51-2.1-2.32-3.66-.54-2.38,2.71-4.92,5.28-7.22,8.06-9.04,10.92-15.85,23.1-20.18,36.74Zm-1.22-380.23c.08,6.01,5.56,11.42,11.61,11.43,6.24,.02,11.68-5.55,11.55-11.81-.13-6.1-5.64-11.57-11.56-11.44-6.32,.13-11.68,5.6-11.6,11.82ZM180.28,12.75c-6.3-.04-11.89,5.43-11.82,11.56,.07,6.28,5.51,11.66,11.77,11.65,6.04-.01,11.26-5.29,11.44-11.57,.17-5.83-5.48-11.61-11.38-11.65Zm137.35,406.59c-6.09,.12-11.45,5.51-11.45,11.53,0,6.14,5.67,11.77,11.76,11.66,6.22-.12,11.64-5.81,11.4-11.96-.25-6.2-5.62-11.34-11.7-11.22Zm-274.77,.03c-5.98-.39-11.63,4.65-12.11,10.8-.47,6.1,4.69,11.87,11.02,12.33,5.96,.43,11.67-4.87,12.11-11.26,.4-5.83-4.83-11.47-11.02-11.88ZM18.52,202.96c-2.8-.09-5.61,2.56-5.7,5.39-.09,2.8,2.56,5.6,5.4,5.69,2.8,.1,5.6-2.56,5.7-5.39,.09-2.8-2.56-5.6-5.4-5.69Zm101.21,430.88c-.11-2.84-2.92-5.48-5.72-5.38-2.84,.11-5.49,2.92-5.38,5.71,.11,2.84,2.91,5.48,5.71,5.38,2.84-.1,5.49-2.92,5.38-5.71Zm-5.59-517.15c-2.83,.02-5.54,2.77-5.51,5.58,.03,2.83,2.76,5.53,5.59,5.51,2.83-.02,5.53-2.76,5.51-5.58-.02-2.83-2.77-5.53-5.59-5.51Zm65.9,338.59c-2.81,0-5.57,2.75-5.56,5.55,0,2.78,2.77,5.55,5.56,5.55,2.81,0,5.55-2.74,5.55-5.55,0-2.82-2.73-5.55-5.55-5.55ZM245.99,116.69c-2.82-.04-5.57,2.66-5.61,5.48-.03,2.82,2.65,5.56,5.49,5.6,2.81,.04,5.57-2.65,5.61-5.48,.04-2.81-2.66-5.57-5.49-5.6Zm41.71,152.14c-2.84,.09-5.5,2.89-5.4,5.69,.1,2.84,2.89,5.49,5.69,5.4,2.84-.09,5.49-2.89,5.4-5.69-.09-2.84-2.89-5.49-5.7-5.4Zm59.59-60.36c-.02-2.82-2.77-5.53-5.59-5.51-2.83,.02-5.54,2.77-5.51,5.58,.03,2.83,2.76,5.53,5.59,5.51,2.83-.02,5.53-2.76,5.51-5.58Z"/>
</svg>