<?xml version="1.0" encoding="UTF-8"?>
<svg id="a" xmlns="http://www.w3.org/2000/svg" viewBox="0 0 88.62 88.72">
  <defs>
    <style>
      .b {
        fill: #3d3d3d;
      }
    </style>
  </defs>
  <path class="b" d="M48.39,46.56c-1.85-.06-3.7-.03-5.07-.05-2.43,0-4.38,0-6.34,0-.47,0-.77,.09-.77,.68,.02,3.45,.02,6.9,0,10.36,0,.52,.21,.69,.7,.69,3.62,0,7.23,.06,10.85-.02,4.12-.1,6.2-2.17,6.19-5.98,0-3.42-2.14-5.55-5.56-5.66Z"/>
  <path class="b" d="M69.4,7.72C63.23,3.26,56.2,.85,48.61,.11c-.17-.02-.34-.07-.5-.11h-7.61c-2.71,.36-5.44,.69-8.05,1.51C15.14,6.93,4.5,18.49,.64,36.23c-.31,1.4-.43,2.84-.64,4.27v7.61c.36,2.71,.69,5.44,1.51,8.06,5.44,17.34,16.98,28.26,34.84,31.73,18.25,3.55,35.97-4.61,45.8-20.41,3.65-5.87,5.85-12.28,6.33-19.19,1.17-17.04-5.26-30.61-19.08-40.58Zm-9.44,48.08c-.68,2.77-2.41,4.66-4.94,5.89-1.99,.97-4.1,1.46-6.3,1.55-6,.24-12.01,.05-18.01,.12-.69,0-.76-.34-.76-.88,0-5.82,0-11.64,0-17.46,0-5.78,0-11.56,0-17.33,0-1.03,.01-1.04,1.03-1.04,6,0,12.01-.02,18.01,.04,2.26,.02,4.39,.63,6.28,1.91,2.04,1.37,3.02,3.35,3.28,5.74,.11,1.01,.1,2.01-.07,3.01-.43,2.53-1.85,4.34-4.04,5.6-.23,.13-.47,.24-.71,.37-.1,.06-.25,.1-.24,.25,.01,.15,.16,.17,.27,.21,.13,.05,.28,.08,.41,.12,2.79,.8,4.62,2.6,5.51,5.34,.7,2.16,.8,4.35,.26,6.57Z"/>
  <path class="b" d="M36.97,42.08c3.29-.01,6.58,.03,9.86-.02,3.64-.06,5.67-2.22,5.5-5.72-.11-2.29-1.03-3.63-2.92-4.25-.59-.19-1.19-.29-1.81-.33-1.73-.11-3.45-.03-4.76-.06-2.23,0-4.03,.01-5.84,0-.58,0-.79,.21-.78,.8,.02,2.94,.02,5.88,0,8.82,0,.56,.19,.77,.75,.77Z"/>
</svg>