<?xml version="1.0" encoding="UTF-8"?>
<svg id="a" data-name="Layer 1" xmlns="http://www.w3.org/2000/svg" viewBox="0 0 88.62 88.72">
  <defs>
    <style>
      .b {
        fill: #3d3d3d;
      }
    </style>
  </defs>
  <path class="b" d="M69.4,7.72C63.23,3.26,56.2,.85,48.61,.11c-.17-.02-.34-.07-.5-.11h-7.61c-2.71,.36-5.44,.69-8.05,1.51C15.14,6.93,4.5,18.49,.64,36.23c-.31,1.4-.43,2.84-.64,4.27v7.61c.36,2.71,.69,5.44,1.51,8.06,5.44,17.34,16.98,28.26,34.84,31.73,18.25,3.55,35.97-4.61,45.8-20.41,3.65-5.87,5.85-12.28,6.33-19.19,1.17-17.04-5.26-30.61-19.08-40.58ZM32.87,51.21c-.74,.96-1.66,1.69-2.75,2.18-1.09,.49-2.49,.73-4.18,.73-2.05,0-3.73-.3-5.03-.89-1.3-.6-2.42-1.65-3.37-3.15-.94-1.5-1.42-3.42-1.42-5.77,0-3.12,.83-5.52,2.49-7.2,1.66-1.68,4.01-2.52,7.05-2.52,2.38,0,4.25,.48,5.61,1.44,1.36,.96,2.37,2.44,3.03,4.43l-5.15,1.15c-.18-.58-.37-1-.57-1.26-.33-.45-.73-.79-1.2-1.03-.47-.24-1-.36-1.58-.36-1.32,0-2.34,.53-3.04,1.6-.53,.79-.8,2.03-.8,3.72,0,2.09,.32,3.53,.95,4.3,.64,.78,1.53,1.16,2.68,1.16s1.96-.31,2.53-.94c.57-.63,.99-1.54,1.24-2.73l5.11,1.55c-.34,1.43-.88,2.63-1.62,3.59Zm19.57-.21c-.67,1.02-1.61,1.8-2.81,2.32-1.2,.53-2.72,.79-4.55,.79-3.21,0-5.44-.62-6.67-1.85s-1.94-2.81-2.1-4.71l5.55-.35c.12,.9,.36,1.59,.73,2.06,.6,.76,1.46,1.15,2.58,1.15,.83,0,1.47-.2,1.93-.59s.68-.84,.68-1.36-.21-.93-.64-1.31c-.43-.39-1.43-.75-2.99-1.09-2.56-.58-4.38-1.34-5.47-2.29-1.1-.95-1.65-2.17-1.65-3.65,0-.97,.28-1.89,.84-2.75,.56-.86,1.41-1.54,2.54-2.04,1.13-.49,2.68-.74,4.64-.74,2.41,0,4.25,.45,5.52,1.35,1.27,.9,2.02,2.32,2.26,4.28l-5.5,.32c-.15-.85-.45-1.47-.92-1.85-.47-.39-1.11-.58-1.94-.58-.68,0-1.19,.14-1.53,.43-.34,.29-.52,.64-.52,1.05,0,.3,.14,.57,.43,.81,.27,.25,.93,.48,1.96,.7,2.55,.55,4.38,1.11,5.48,1.67,1.1,.56,1.91,1.26,2.41,2.09,.5,.83,.75,1.76,.75,2.8,0,1.21-.33,2.33-1,3.35Zm19.05,0c-.67,1.02-1.61,1.8-2.81,2.32-1.2,.53-2.72,.79-4.55,.79-3.21,0-5.44-.62-6.67-1.85-1.24-1.24-1.94-2.81-2.1-4.71l5.55-.35c.12,.9,.36,1.59,.73,2.06,.6,.76,1.46,1.15,2.58,1.15,.83,0,1.47-.2,1.93-.59s.68-.84,.68-1.36-.21-.93-.64-1.31c-.43-.39-1.43-.75-2.99-1.09-2.56-.58-4.38-1.34-5.47-2.29-1.1-.95-1.65-2.17-1.65-3.65,0-.97,.28-1.89,.84-2.75,.56-.86,1.41-1.54,2.54-2.04,1.13-.49,2.68-.74,4.64-.74,2.41,0,4.25,.45,5.52,1.35,1.27,.9,2.02,2.32,2.26,4.28l-5.5,.32c-.15-.85-.45-1.47-.92-1.85-.47-.39-1.11-.58-1.94-.58-.68,0-1.19,.14-1.53,.43-.34,.29-.52,.64-.52,1.05,0,.3,.14,.57,.43,.81,.27,.25,.93,.48,1.96,.7,2.55,.55,4.38,1.11,5.48,1.67,1.1,.56,1.91,1.26,2.41,2.09,.5,.83,.75,1.76,.75,2.8,0,1.21-.33,2.33-1,3.35Z"/>
</svg>