<?xml version="1.0" encoding="utf-8"?>
<!-- Generator: Adobe Illustrator 26.4.1, SVG Export Plug-In . SVG Version: 6.00 Build 0)  -->
<svg version="1.1" id="a" xmlns="http://www.w3.org/2000/svg" xmlns:xlink="http://www.w3.org/1999/xlink" x="0px" y="0px"
	 viewBox="0 0 509.5 512" style="enable-background:new 0 0 509.5 512;" xml:space="preserve">
<style type="text/css">
	.st0{fill:#3D3D3D;}
</style>
<path class="st0" d="M509.5,257.1C509.2,397.6,394.2,512.3,253.6,512C113.8,511.7-0.2,396.1,0,254.9C0.2,114.3,115.3-0.3,255.9,0
	C395.7,0.3,509.7,115.8,509.5,257.1L509.5,257.1z M124.2,328.2c87.2,46.7,174,46.6,262.7-2.6c-3,7.8-6.4,10.3-9.6,13
	c-11.4,9.6-24.2,17-38.2,22.3c-2.9,1.1-8.5,0.7-7,6.9c2,8.5,18.2,21.3,26.4,20.5c31.5-3.1,60-13.5,84.3-34.6
	c7.4-6.5,10.5-13.2,10.2-23c-1.4-49-15.7-94.6-31.9-140.3c-11.4-32.1-33.9-48-63.6-57.9c-6.4-2.1-12.9-4.4-19.5-5.5
	c-8.5-1.3-16.9-4.7-29.2-2c29.8,11.3,56.5,21.3,78.5,41.1c-88.5-39.3-176.5-39-265.1-0.1c22.4-19.4,48.8-30,75.7-39.7
	c-2.1-3.8-5-2.8-7.2-2.5c-29.2,3.2-55.8,13.5-80.2,29.6c-4,2.7-6.8,6.2-8.9,10.5c-26.2,52.9-43.3,108.2-45,167.8
	c-0.3,9.4,3.1,15.8,10,21.8c24.2,21.2,52.7,31.5,84.2,34.9c5.9,0.6,10.5-1,14.8-5.4c15.9-16.1,15.9-16.8-4.1-26
	C146.9,350.4,134,341.6,124.2,328.2L124.2,328.2z"/>
<path class="st0" d="M193.9,238.7c20.2,0.6,36.7,18.3,35.8,38.5c-0.8,19.5-18.8,36.8-37.4,35.9c-20.1-0.9-36.1-18.5-35.4-39
	C157.5,253.6,173.6,238.2,193.9,238.7L193.9,238.7z"/>
<path class="st0" d="M317.1,238.7c20,0.1,35.6,16.3,35.6,36.9c-0.1,20.5-17,37.7-36.9,37.5c-18.9-0.2-36.1-18.1-36-37.4
	C279.9,255.3,296.8,238.6,317.1,238.7L317.1,238.7z"/>
</svg>
