<?xml version="1.0" encoding="utf-8"?>
<!-- Generator: Adobe Illustrator 26.4.1, SVG Export Plug-In . SVG Version: 6.00 Build 0)  -->
<svg version="1.1" id="a" xmlns="http://www.w3.org/2000/svg" xmlns:xlink="http://www.w3.org/1999/xlink" x="0px" y="0px"
	 viewBox="0 0 512 512" style="enable-background:new 0 0 512 512;" xml:space="preserve">
<style type="text/css">
	.st0{fill:#3D3D3D;}
</style>
<path class="st0" d="M503.5,188.4C473.3,90,408.1,28.8,308,4.7c-9.9-2.4-20-3.1-30-4.7h-44c-15.3,2.1-30.6,4.4-45.6,8.4
	C94.1,33.7,20.6,113.7,3.6,209.8c-1.4,8-2.4,16.1-3.6,24.2v44c2.1,15.7,4,31.4,8.7,46.5c31.5,100.1,98.4,161.6,201.1,183.8
	c8.3,1.8,16.8,2.5,25.1,3.7h42c16-1.9,32.1-3.9,47.5-8.7c99.8-31.2,161.1-98,183.6-200.1c1.9-8.6,2.6-17.4,3.8-26.1v-42
	C510.1,219.3,508.1,203.6,503.5,188.4L503.5,188.4z M400,246c-8.9,31.1-29.7,49.9-60.1,59.1c-9.8,3-19.9,4.8-30,6.1
	c-0.7,0.1-1.6-0.1-2,0.6c-0.6,1,0.5,1.5,1,2.1c8.1,9.5,11.3,20.8,11.5,32.9c0.3,19.7,0.1,39.4,0,59.1c0,8.8,0.6,9.7,9.2,12.3
	c0.4,0.1,0.8,0.4,1.3,0.6c0,0.2-0.1,0.4-0.1,0.6c-42.9,0.4-85.7,0.8-129,1.1c1-1.6,2.1-1.2,3-1.4c5.7-1.5,7.7-3.9,7.7-9.8
	c0-10.6-0.1-21.2,0-31.8c0-2.9-1-3.3-3.6-2.8c-12,2.1-24.1,2.7-36-0.6c-15.9-4.4-27.4-13.9-33.7-29.3c-5.4-13.1-13-24.4-25.4-31.9
	c-2.1-1.3-4.1-2.9-5.6-4.9c-2.2-3-1.5-5.4,2-6.7c4.7-1.6,9.4-1,14,0.3c11.6,3.3,20,10.9,26.4,20.8c4.5,7,9.6,13.4,16.9,17.6
	c14.2,8.1,28.7,6.4,43.3,0.9c1.9-0.7,2.1-2.1,2.4-3.8c1.5-8.1,4.6-15.5,9.9-21.9c0.7-0.8,2.1-1.6,1.7-2.7c-0.5-1.3-2.1-1-3.3-1.2
	c-11.3-1.4-22.4-3.7-33.1-7.5c-31.1-10.9-50.3-32.3-57.1-64.6c-3.9-18.2-5.4-36.5-0.7-54.8c3-11.8,8.4-22.4,16.4-31.6
	c2.4-2.8,2.9-5.1,1.7-8.6c-5.4-16.9-3.1-33.5,2.7-49.8c0.9-2.6,3-2.8,5.1-2.8c8.3-0.1,16,2.3,23.6,5.2c10.3,3.9,19.9,9.3,29.1,15.3
	c2.1,1.4,4,1.8,6.6,1.1c33.1-8.4,66.4-8.5,99.5-0.4c3.9,0.9,6.7,0.4,10-1.7c12.5-8,25.6-15.3,40.4-18.1c17-3.2,14.6-2.2,18.4,11.1
	c3.9,13.6,3.9,27.3-0.1,41c-0.8,2.8-0.4,4.8,1.5,7.1c12.8,15,19,32.5,19.4,52.2C405.3,218.4,403.9,232.4,400,246L400,246z"/>
</svg>
