<?xml version="1.0" encoding="UTF-8"?>
<svg id="a" data-name="Layer 1" xmlns="http://www.w3.org/2000/svg" viewBox="0 0 88.62 88.72">
  <defs>
    <style>
      .b {
        fill: #3d3d3d;
      }
    </style>
  </defs>
  <path class="b" d="M69.4,7.72C63.23,3.26,56.2,.85,48.61,.11c-.17-.02-.34-.07-.5-.11h-7.61c-2.71,.36-5.44,.69-8.05,1.51C15.14,6.93,4.5,18.49,.64,36.23c-.31,1.4-.43,2.84-.64,4.27v7.61c.36,2.71,.69,5.44,1.51,8.06,5.44,17.34,16.98,28.26,34.84,31.73,18.25,3.55,35.97-4.61,45.8-20.41,3.65-5.87,5.85-12.28,6.33-19.19,1.17-17.04-5.26-30.61-19.08-40.58ZM27.53,51.45h-4.4v-5.73h-4.79v5.73h-4.38v-14.18h4.38v4.96h4.79v-4.96h4.4v14.18Zm15.23-10.68h-4.47v10.68h-4.38v-10.68h-4.47v-3.5h13.32v3.5Zm17.88,10.68h-3.59v-10.81l-2.76,10.81h-3.25l-2.76-10.81v10.81h-3.59v-14.18h5.76l2.22,8.63,2.21-8.63h5.76v14.18Zm14.01,0h-11.22v-14.18h4.38v10.69h6.84v3.49Z"/>
</svg>