<?xml version="1.0" encoding="UTF-8"?>
<svg id="a" data-name="Layer 1" xmlns="http://www.w3.org/2000/svg" viewBox="0 0 88.71 88.59">
  <defs>
    <style>
      .b {
        fill: #3d3d3d;
      }
    </style>
  </defs>
  <path class="b" d="M40.6,0C43.14,0,45.68,0,48.22,0c1.39,.21,2.8,.33,4.18,.63,17.81,3.85,29.41,14.5,34.82,31.89,.82,2.65,1.17,5.4,1.49,8.14v7.27c-.04,.23-.09,.45-.11,.68-.66,6.8-2.64,13.21-6.39,18.91-10.27,15.61-24.79,22.64-43.43,20.77-7.86-.79-15.01-3.74-21.18-8.66C3.61,68.47-2.39,53.85,.87,36.27,4.17,18.42,15.24,6.94,32.55,1.51,35.17,.69,37.89,.36,40.6,0ZM20.56,44.21c0,7.52,0,15.05,0,22.57,0,1.36,0,1.36,1.33,1.36,15.02,0,30.04,0,45.06,0,1.29,0,1.3,0,1.3-1.31,0-15.02,0-30.04,0-45.06,0-1.31,0-1.32-1.29-1.32-15.05,0-30.1,0-45.15,0-1.23,0-1.26,.02-1.26,1.27,0,7.5,0,14.99,0,22.49Z"/>
  <path class="b" d="M57.15,64.61c-3.14-.03-5.82-1.04-7.69-3.7-.66-.93-.62-1.02,.33-1.58,.67-.39,1.36-.76,2.01-1.18,.58-.38,.97-.38,1.41,.26,1.11,1.6,2.7,2.16,4.6,1.93,1.12-.14,1.97-.78,2.17-1.69,.2-.91-.2-1.75-1.27-2.32-1.4-.73-2.88-1.33-4.29-2.04-1.93-.96-3.47-2.29-3.99-4.5-.95-4.04,1.53-7.46,5.68-7.78,2.78-.22,5.2,.48,6.89,2.91,.41,.59,.35,.94-.27,1.3-.75,.43-1.48,.9-2.18,1.4-.51,.36-.82,.29-1.19-.22-.81-1.11-1.9-1.5-3-1.2-.77,.21-1.28,.67-1.43,1.45-.14,.74,.15,1.36,.71,1.84,.62,.53,1.38,.82,2.12,1.15,1.26,.56,2.54,1.1,3.73,1.82,2.59,1.57,3.57,3.89,3.21,6.83-.32,2.58-2.38,4.55-5.29,5.11-.74,.14-1.48,.24-2.24,.2Z"/>
  <path class="b" d="M41.93,50.61c0-2.45,.02-4.9-.01-7.35-.01-.79,.27-1.1,1.05-1.07,.95,.04,1.9,.02,2.85,0,.56,0,.87,.21,.86,.81-.06,5.3,.22,10.6-.14,15.9-.22,3.18-2.02,5-5.18,5.58-3.23,.6-6.32-.66-7.93-3.18-.45-.7-.39-1.11,.36-1.49,.72-.37,1.41-.79,2.07-1.25,.63-.44,1.04-.42,1.43,.31,.37,.7,.93,1.25,1.76,1.43,1.75,.36,2.84-.47,2.87-2.26,.04-2.48,0-4.96,0-7.43h0Z"/>
</svg>