<?xml version="1.0" encoding="utf-8"?>
<!-- Generator: Adobe Illustrator 26.4.1, SVG Export Plug-In . SVG Version: 6.00 Build 0)  -->
<svg version="1.1" id="a" xmlns="http://www.w3.org/2000/svg" xmlns:xlink="http://www.w3.org/1999/xlink" x="0px" y="0px"
	 viewBox="0 0 512 512" style="enable-background:new 0 0 512 512;" xml:space="preserve">
<style type="text/css">
	.st0{fill:#3D3D3D;}
</style>
<path class="st0" d="M512,235v42c-1.2,8.7-1.9,17.6-3.8,26.1C485.7,405.3,424.4,472,324.5,503.3c-15.5,4.8-31.5,6.9-47.5,8.7h-42
	c-8.4-1.2-16.9-1.9-25.1-3.7C107.1,486.2,40.2,424.7,8.7,324.5C4,309.4,2.1,293.7,0,278c0-14.7,0-29.3,0-44
	c1.2-8.1,2.2-16.1,3.6-24.2c17-96.1,90.5-176.1,184.8-201.4c15-4,30.3-6.3,45.6-8.4h44c10,1.6,20.2,2.3,30,4.7
	C408.1,28.8,473.3,90,503.5,188.4C508.1,203.6,510.1,219.3,512,235L512,235z M217.1,293c0,0-0.1,0-0.1,0c0,29,0,58,0,87
	c0,6.1,0.5,6.6,6.5,6.6c15.5,0,31,0,46.5,0c5.2,0,7.8-2.6,7.8-7.7c0-32.5,0-65,0-97.5c0-9.5,2.6-18.1,8.6-25.5
	c15.6-19,45.5-15.6,54.3,6.3c2.4,6.1,3.7,12.4,3.7,19c0,33,0.1,66,0,99c0,4.7,1.3,6.5,6.2,6.4c16-0.3,32-0.1,48-0.1
	c7,0,7.1,0,7.1-6.9c0-33.7,0-67.3,0-101c0-7.9-0.7-15.6-2-23.4c-7.9-44.1-40.2-64.3-81.1-58.8c-17.3,2.3-30.7,11.3-40.8,25.5
	c-0.8,1.1-1.3,3.2-3.2,2.4c-1.4-0.6-0.9-2.4-0.9-3.6c-0.1-4.8-0.3-9.7,0-14.5c0.3-4.9-1.8-6.3-6.4-6.3c-15.8,0.2-31.7,0.1-47.5,0.1
	c-6.4,0-6.8,0.5-6.8,6.8C217,235.7,217,264.3,217.1,293L217.1,293z M120.1,293c0,29.2,0.1,58.3-0.1,87.5c0,4.4,1.3,6.3,6,6.2
	c16.3-0.2,32.7-0.2,49,0c4.4,0,5.9-1.5,5.8-5.8c-0.1-58.3-0.1-116.7,0-175c0-4.4-1.8-5.8-6-5.8c-15.8,0.1-31.7,0-47.5,0.1
	c-7.1,0-7.3,0.2-7.3,7.3C120.1,236,120.1,264.5,120.1,293L120.1,293z M150.3,172.9c25.7,0,41.4-21.4,32.2-44
	c-5.5-13.3-16.6-18.8-30.1-19.3c-16.1-0.6-30.6,6.9-35,23.1C111.5,154.5,126.8,173,150.3,172.9L150.3,172.9z"/>
</svg>
