<?xml version="1.0" encoding="UTF-8"?>
<svg id="a" data-name="Layer 1" xmlns="http://www.w3.org/2000/svg" viewBox="0 0 88.62 88.72">
  <defs>
    <style>
      .b {
        fill: #3d3d3d;
      }
    </style>
  </defs>
  <path class="b" d="M40.49,0c2.54,0,5.08,0,7.61,0,.17,.04,.33,.09,.5,.11,7.59,.74,14.62,3.15,20.79,7.61,13.82,9.97,20.25,23.53,19.08,40.58-.47,6.91-2.68,13.32-6.33,19.19-9.84,15.81-27.55,23.96-45.8,20.41-17.86-3.47-29.39-14.39-34.84-31.73-.82-2.62-1.15-5.34-1.51-8.06,0-2.54,0-5.08,0-7.61,.21-1.42,.34-2.86,.64-4.27C4.5,18.49,15.14,6.93,32.44,1.51c2.62-.82,5.34-1.15,8.05-1.51Zm28.57,68.67c0-.51-.14-.66-.27-.81-1.91-2.13-3.81-4.25-6.44-5.56-.67-.33-1.28-.79-1.72-1.42-.24-.35-.26-.63,.27-.74,1.01-.21,1.99-.58,3.03-.69,1.06-.11,2.11-.26,3.14-.59,.61-.19,.68-.43,.25-.89-.47-.51-.86-1.1-1.37-1.55-2.81-2.47-5.82-4.64-9.36-5.96-.85-.32-1.41-.84-1.79-1.64-.8-1.66-1.6-3.33-2.42-4.98-1.09-2.19-1.78-4.57-3.03-6.69-2.9-4.92-6.86-8.78-11.7-11.8-2.23-1.39-4.58-2.27-7.23-2.31-.87-.01-1.58-.31-2.27-.87-1.59-1.28-3.43-2.13-5.45-2.5-1.9-.35-3.29,.59-3.56,2.37-.14,.9,.2,1.72,.68,2.45,.69,1.03,1.44,2.02,2.19,3,.74,.97,1.25,2.03,1.63,3.21,.91,2.76,1.71,5.58,3.74,7.82,.22,.24,.3,.53,.19,.88-.29,.96-.58,1.93-.81,2.91-.8,3.37-.75,6.69,.63,9.91,.43,1.02,1.03,1.94,1.93,2.61,1.31,.97,2.74,.49,3.15-1.08,.2-.78,.25-1.59,.42-2.38,.09-.4-.05-1.06,.41-1.11,.41-.04,.5,.62,.69,1,1.41,2.78,3.39,5.08,5.58,6.37-1.27-1.65-2.4-3.35-3.42-5.13-1.03-1.81-1.95-3.67-2.65-5.62-.22-.62-.44-.56-.81-.12-.77,.89-1.32,1.89-1.52,3.06-.17,1.05-.32,2.11-.47,3.16-.1,.72-.46,.7-.95,.37-.45-.3-.7-.75-.93-1.22-1.3-2.6-1.41-5.37-1.13-8.19,.14-1.39,.74-2.66,1.15-3.98,.22-.73,.38-1.52-.23-2.12-1.58-1.56-2.39-3.52-2.97-5.59-.74-2.69-1.96-5.1-3.78-7.21-.43-.5-.82-1.05-1.09-1.66-.26-.57-.47-1.17-.01-1.71,.47-.57,1.13-.51,1.76-.3,1.75,.6,3.46,1.29,4.88,2.53,.48,.41,1,.58,1.63,.67,1.36,.19,2.77,.03,4.09,.58,7.27,3.03,12.46,8.18,15.66,15.34,1.38,3.08,2.77,6.15,4.24,9.19,.6,1.25,1.51,2.08,2.88,2.38,3.49,.78,6.19,3,9.04,4.95,.25,.17,.6,.4,.51,.74-.1,.39-.53,.28-.82,.27-2.13-.05-4.18,.33-6.18,1.06-.74,.27-.88,.61-.54,1.28,.54,1.08,1.32,1.93,2.25,2.7,2.68,2.23,6.26,2.99,8.88,5.64ZM30.22,28.1c-.31,0-.57,0-.69,.24-.1,.21,.09,.38,.22,.52,.48,.5,.8,1.11,1.09,1.73,.21,.44,.46,.4,.66,0,.24-.47,.35-.96,.02-1.46-.34-.52-.73-.95-1.3-1.04Z"/>
</svg>