<?xml version="1.0" encoding="UTF-8"?>
<svg id="a" data-name="Layer 1" xmlns="http://www.w3.org/2000/svg" viewBox="0 0 88.62 88.72">
  <defs>
    <style>
      .b {
        fill: #3d3d3d;
      }
    </style>
  </defs>
  <path class="b" d="M40.49,0c2.54,0,5.08,0,7.61,0,.17,.04,.33,.09,.5,.11,7.59,.74,14.62,3.15,20.79,7.61,13.82,9.97,20.25,23.53,19.08,40.58-.47,6.91-2.68,13.32-6.33,19.19-9.84,15.81-27.55,23.96-45.8,20.41-17.86-3.47-29.39-14.39-34.84-31.73-.82-2.62-1.15-5.34-1.51-8.06,0-2.54,0-5.08,0-7.61,.21-1.42,.34-2.86,.64-4.27C4.5,18.49,15.14,6.93,32.44,1.51c2.62-.82,5.34-1.15,8.05-1.51Zm-8.19,28.19s0,0,0,.01c-3.32,0-6.63-.05-9.95,.01-4.78,.09-8.25,2.85-9.51,7.46-1.15,4.25-1.62,8.55-.84,12.92,.44,2.44,.85,4.89,2.05,7.11,1.21,2.22,2.93,3.83,5.49,4.2,2.05,.3,4.15,.1,6.22,.1,.62,0,.63-.47,.63-.92,0-2.13,0-4.27,0-6.4,0-.4,.01-.81,.08-1.21,.88-4.93,5.05-8.44,10.04-8.45,5.08-.01,10.15,0,15.23,0,4.72,0,8.17-3.38,8.21-8.09,.04-4.9,.03-9.81,0-14.71-.01-2.34-.91-4.31-2.66-5.88-1.37-1.22-2.96-2.02-4.75-2.34-4.94-.91-9.92-.95-14.89-.3-1.94,.25-3.87,.63-5.66,1.5-1.82,.88-2.95,2.28-3.25,4.29-.36,2.44-.08,4.89-.18,7.34-.03,.83,.27,1.11,1.1,1.1,4.15-.03,8.31-.01,12.46-.01,.52,0,1.04,0,1.56,.02,.3,.01,.54,.09,.64,.45,.35,1.25-.03,1.8-1.3,1.8-3.58,0-7.15,0-10.73,0Zm24.73,31.83h0c3.66,0,7.32-.03,10.98,0,2.59,.03,4.51-1.1,5.76-3.31,1.91-3.39,2.99-7.04,3.17-10.94,.16-3.43-.42-6.78-1.28-10.08-.45-1.71-1.05-3.36-2.13-4.79-1.25-1.66-2.88-2.64-4.99-2.68-1.79-.04-3.57,0-5.36-.05-.81-.02-1.04,.34-1.03,1.1,.03,1.87,.02,3.75,0,5.62-.06,5.78-4.6,10.3-10.36,10.31-5.02,0-10.03,0-15.05,0-.49,0-.99,0-1.46,.08-4,.7-6.67,3.84-6.69,7.93-.03,4.79,.06,9.57-.03,14.36-.06,3,1.24,5.12,3.66,6.7,.9,.59,1.86,1.05,2.86,1.41,4.87,1.73,9.83,2.11,14.89,.98,2.6-.58,5.14-1.33,7.28-3.03,1.45-1.16,2.4-2.63,2.62-4.51,.24-1.96,.04-3.92,.12-5.87,.03-.73-.28-.96-.97-.96-2.19,.02-4.38,0-6.57,0-2.42,0-4.84,0-7.27,0-.36,0-.77,.07-.97-.37-.48-1.03,.04-1.91,1.16-1.91,3.89,0,7.78,0,11.68,0Z"/>
  <path class="b" d="M32.3,18.99c.01-1.7,1.42-3.13,3.07-3.11,1.65,.02,3.08,1.49,3.06,3.14-.02,1.69-1.44,3.11-3.1,3.1-1.69-.02-3.05-1.42-3.04-3.13Z"/>
  <path class="b" d="M53.14,66.08c1.65-.01,3.06,1.43,3.06,3.12,0,1.69-1.4,3.12-3.06,3.13-1.67,0-3.03-1.4-3.03-3.12,0-1.72,1.35-3.11,3.03-3.12Z"/>
</svg>