<?xml version="1.0" encoding="UTF-8"?>
<svg id="a" data-name="Layer 1" xmlns="http://www.w3.org/2000/svg" viewBox="0 0 88.62 88.72">
  <defs>
    <style>
      .b {
        fill: #3d3d3d;
      }
    </style>
  </defs>
  <path class="b" d="M27.75,44.05c-.22,.26-.12,.45,.06,.65,.51,.55,1,1.12,1.52,1.66,.42,.44,.87,.87,1.31,1.3-.04-2.24-.04-4.41,.13-6.74-1.16,1.05-2.1,2.08-3.02,3.13Z"/>
  <path class="b" d="M32.51,28.15c-.68-.04-1.36-.08-2.12-.12-.54,.04-1.17,.06-1.79,.13-.55,.07-1.1,.17-1.63,.3-3.21,.83-4.82,3.07-4.43,6.12,.35,2.76,1.62,5.12,3.15,7.38,.13,.19,.22,.24,.4,.03,1.46-1.7,3.09-3.23,4.78-4.7,.17-.15,.27-.32,.3-.55,.36-2.7,.95-5.35,1.82-7.93,.17-.52-.04-.64-.47-.66Z"/>
  <path class="b" d="M40.97,58.29c.01-.19-.21-.22-.34-.29-2.08-1.13-4.09-2.36-6.02-3.74-.13-.09-.24-.23-.42-.22-.01,.04-.04,.07-.04,.1,.35,1.85,.84,3.66,1.45,5.44,.11,.33,.29,.35,.56,.29,1.51-.37,3.01-.81,4.46-1.37,.13-.05,.33-.06,.34-.22Z"/>
  <path class="b" d="M31.17,52.03c-.04-.33-.17-.56-.42-.77-1.64-1.41-3.21-2.91-4.63-4.55-.24-.28-.34-.18-.5,.06-.51,.76-1,1.53-1.42,2.34-1.02,1.96-1.79,3.98-1.68,6.25,.08,1.61,.77,2.89,2.09,3.8,1.74,1.21,3.76,1.38,5.84,1.47,.66-.04,1.38-.1,2.09-.13,.5-.02,.58-.22,.42-.68-.86-2.53-1.43-5.13-1.79-7.78Z"/>
  <path class="b" d="M51.36,62.27c-2.28-.57-4.49-1.33-6.64-2.28-.26-.11-.5-.14-.77-.02-2.18,.97-4.43,1.73-6.74,2.31-.32,.08-.42,.19-.26,.52,.85,1.69,1.84,3.28,3.22,4.59,1.15,1.09,2.47,1.9,4.02,1.93,1.3,0,2.34-.45,3.28-1.14,1.92-1.4,3.15-3.34,4.2-5.42,.19-.37-.06-.42-.32-.49Z"/>
  <path class="b" d="M47.46,30.4c2.46,1.3,4.75,2.71,7.03,4.36-.37-2.05-.89-3.92-1.52-5.76-.1-.3-.31-.25-.52-.2-.85,.23-1.7,.44-2.53,.7-.8,.24-1.6,.48-2.45,.9Z"/>
  <path class="b" d="M37.29,26.41c2.26,.57,4.45,1.33,6.59,2.26,.28,.12,.53,.14,.82,.01,2.15-.95,4.36-1.71,6.64-2.27,.4-.1,.48-.23,.28-.62-.8-1.57-1.72-3.06-2.98-4.31-1.19-1.18-2.55-2.09-4.24-2.14-1.34,.01-2.43,.51-3.42,1.26-1.83,1.39-3,3.28-4.03,5.29-.21,.42,.08,.45,.35,.51Z"/>
  <path class="b" d="M34.27,34.64c2.13-1.45,4.27-2.87,6.55-4.07,.26-.14,.19-.26-.04-.35-1.55-.59-3.14-1.08-4.76-1.45-.22-.05-.32,.05-.39,.25-.63,1.82-1.14,3.68-1.49,5.6,.09,0,.12,.02,.13,0Z"/>
  <path class="b" d="M60.84,44.65c.16-.18,.24-.35,.05-.56-.92-1.06-1.87-2.1-2.98-3.02,.11,2.2,.09,4.37-.05,6.68,1.15-1.04,2.07-2.06,2.98-3.09Z"/>
  <path class="b" d="M62.51,46.69c-1.45,1.67-3.04,3.19-4.71,4.63-.2,.17-.32,.37-.35,.64-.36,2.7-.96,5.35-1.83,7.94-.14,.41-.02,.53,.38,.58,1.95,.23,3.9,.22,5.8-.32,2.86-.81,4.25-2.52,4.3-5.18-.02-.29-.02-.57-.05-.86-.32-2.77-1.61-5.13-3.12-7.4-.14-.21-.24-.26-.43-.03Z"/>
  <path class="b" d="M54.72,38.19c-3.12-2.45-6.47-4.54-10.04-6.28-.26-.13-.5-.13-.76,0-3.59,1.74-6.95,3.85-10.08,6.31-.21,.16-.33,.34-.35,.62-.12,1.82-.29,3.64-.23,5.36-.04,1.86,.07,3.61,.21,5.36,.04,.45,.17,.75,.53,1.03,3.04,2.35,6.27,4.39,9.72,6.09,.41,.2,.74,.21,1.15,0,3.15-1.54,6.09-3.4,8.91-5.47,.88-.65,1.34-1.31,1.41-2.48,.21-3.24,.18-6.47-.09-9.7-.03-.32-.09-.62-.39-.85Zm-10.49,11.1c-3.06-.18-4.94-2.5-4.85-5.06,.1-3.03,2.45-4.89,5.01-4.83,2.98,.08,4.9,2.37,4.85,4.98-.06,3-2.38,4.86-5.01,4.9Z"/>
  <path class="b" d="M62.49,28.75c-2.08-.75-4.21-.74-6.36-.57-.66,.05-.67,.1-.46,.73,.84,2.52,1.41,5.1,1.77,7.73,.04,.33,.18,.56,.42,.77,1.63,1.4,3.19,2.88,4.58,4.52,.25,.29,.36,.22,.54-.05,.51-.76,.99-1.54,1.42-2.34,.95-1.8,1.66-3.68,1.7-5.63-.02-2.63-1.26-4.32-3.61-5.16Z"/>
  <path class="b" d="M52.62,59.9c.28,.06,.33-.13,.39-.32,.28-.91,.58-1.81,.83-2.72,.25-.92,.5-1.85,.64-2.95-2.29,1.64-4.55,3.09-7.07,4.39,1.8,.69,3.48,1.22,5.2,1.61Z"/>
  <path class="b" d="M44.34,42c-1.33-.01-2.36,1.01-2.37,2.32,0,1.32,1.02,2.36,2.33,2.36,1.32,0,2.35-1.03,2.34-2.35,0-1.29-1.02-2.32-2.31-2.33Z"/>
  <path class="b" d="M69.4,7.72C63.23,3.26,56.2,.85,48.61,.11c-.17-.02-.34-.07-.5-.11h-7.61c-2.71,.36-5.44,.69-8.05,1.51C15.14,6.93,4.5,18.49,.64,36.23c-.31,1.4-.43,2.84-.64,4.27v7.61c.36,2.71,.69,5.44,1.51,8.06,5.44,17.34,16.98,28.26,34.84,31.73,18.25,3.55,35.97-4.61,45.8-20.41,3.65-5.87,5.85-12.28,6.33-19.19,1.17-17.04-5.26-30.61-19.08-40.58Zm-4.26,37.72c1.61,2.4,2.91,4.92,3.41,7.81,.76,4.48-1.63,8.21-6.02,9.4-2.41,.65-4.85,.66-7.3,.36-.53-.07-.83,0-1.09,.54-1.07,2.24-2.36,4.34-4.24,6.02-1.7,1.52-3.65,2.44-5.99,2.33-1.97-.09-3.62-.93-5.08-2.2-1.96-1.7-3.3-3.85-4.4-6.16-.24-.51-.53-.59-1.05-.53-2.72,.33-5.43,.35-8.06-.59-4.03-1.45-6.05-5-5.29-9.21,.48-2.66,1.63-5.02,3.07-7.27,.34-.53,.95-1,.97-1.57,.01-.58-.62-1.05-.95-1.57-1.33-2.06-2.43-4.22-2.96-6.63-.56-2.54-.35-4.96,1.25-7.11,1.36-1.82,3.27-2.74,5.43-3.2,2.18-.47,4.37-.43,6.57-.15,.53,.07,.81-.06,1.04-.55,.68-1.44,1.49-2.81,2.46-4.08,1.61-2.09,3.57-3.65,6.21-4.22h2.36c3.18,.69,5.29,2.78,7.02,5.37,.63,.94,1.18,1.93,1.65,2.95,.23,.51,.52,.61,1.04,.54,2.18-.28,4.36-.32,6.52,.14,2.53,.54,4.68,1.69,6.01,4.02,1,1.76,1.19,3.65,.85,5.62-.5,2.86-1.81,5.37-3.42,7.75-.92,1.37-.92,.87-.01,2.22Z"/>
</svg>